<svg xmlns="http://www.w3.org/2000/svg" width="30.123" height="29.75" viewBox="0 0 30.123 29.75"><g transform="translate(0.505 0.707)"><circle cx="3.643" cy="3.643" r="3.643" transform="translate(18.607 5.152) rotate(-45)" fill="none" stroke="#ffffff" stroke-linecap="round" stroke-linejoin="round" stroke-width="1"/><circle cx="3.643" cy="3.643" r="3.643" transform="translate(1.293 5.152) rotate(-45)" fill="none" stroke="#ffffff" stroke-linecap="round" stroke-linejoin="round" stroke-width="1"/><path d="M1177.88,847.977a4.785,4.785,0,0,0-4.785,4.785v12l4.785-7.212,4.785,7.212v-12A4.785,4.785,0,0,0,1177.88,847.977Z" transform="translate(-1154.12 -836.216)" fill="none" stroke="#ffffff" stroke-linecap="round" stroke-linejoin="round" stroke-width="1"/><path d="M1103.291,859.971h-.775v4.789l-3.18-4.789h-3.212l-3.18,4.789v-4.789h-.775a.885.885,0,0,1-.859-1.095l1.727-7.051.093-.378a4.785,4.785,0,0,1,9.2,0l.093.378,1.727,7.051A.884.884,0,0,1,1103.291,859.971Z" transform="translate(-1091.285 -836.218)" fill="none" stroke="#ffffff" stroke-linecap="round" stroke-linejoin="round" stroke-width="1"/></g></svg>